{"title":"Lucky.Stiff.2014.WEBRip.XViD-Sorrow","uid":12163765,"size":739457314,"categoryP":"video","categoryS":"movies","magnet":"?xt=urn:btih:6c0cbde01565c9ac1a279c5bf0d14282f8a7e809&amp;dn=Lucky.Stiff.2014.WEBRip.XViD-Sorrow&amp;tr=udp%3A%2F%2Ftracker.openbittorrent.com%3A80&amp;tr=udp%3A%2F%2Fopen.demonii.com%3A1337&amp;tr=udp%3A%2F%2Ftracker.coppersurfer.tk%3A6969&amp;tr=udp%3A%2F%2Fexodus.desync.com%3A6969","seeders":2,"leechers":0,"uploader":null,"files":2,"time":1437983886,"description":"Lucky Stiff 2014 WEBRip XViD-Sorrow\n\nGeneral\nComplete name                            : Lucky.Stiff.2014.WEBRip.XViD-Sorrow.avi\nFormat                                   : AVI\nFormat/Info                              : Audio Video Interleave\nFile size                                : 705 MiB\nDuration                                 : 1h 18mn\nOverall bit rate                         : 1 257 Kbps\nWriting application                      : Lavf55.19.104\n\nVideo\nID                                       : 0\nFormat                                   : MPEG-4 Visual\nFormat profile                           : Simple@L3\nFormat settings, BVOP                    : No\nFormat settings, QPel                    : No\nFormat settings, GMC                     : No warppoints\nFormat settings, Matrix                  : Default (H.263)\nCodec ID                                 : XVID\nCodec ID/Hint                            : XviD\nDuration                                 : 1h 18mn\nBit rate                                 : 1 117 Kbps\nWidth                                    : 720 pixels\nHeight                                   : 400 pixels\nDisplay aspect ratio                     : 1.85:1\nFrame rate                               : 23.976 fps\nColor space                              : YUV\nChroma subsampling                       : 4:2:0\nBit depth                                : 8 bits\nScan type                                : Progressive\nCompression mode                         : Lossy\nBits/(Pixel*Frame)                       : 0.162\nStream size                              : 626 MiB (89%)\nWriting library                          : XviD 64\n\nAudio\nID                                       : 1\nFormat                                   : MPEG Audio\nFormat version                           : Version 1\nFormat profile                           : Layer 3\nMode                                     : Joint stereo\nCodec ID                                 : 55\nCodec ID/Hint                            : MP3\nDuration                                 : 1h 18mn\nBit rate mode                            : Constant\nBit rate                                 : 128 Kbps\nChannel count                            : 2 channels\nSampling rate                            : 48.0 KHz\nCompression mode                         : Lossy\nStream size                              : 71.8 MiB (10%)\nAlignment                                : Aligned on interleaves\nInterleave, duration                     : 24 ms (0.58 video frame)\nWriting library                          : LAME3.99.5\n\n\nComedy:Musical\n\nA bachelor travels to Monte Carlo to claim an inheritance from his late rich uncle.\n\n\nDirector: Christopher Ashley \n\nWriters: Lynn Ahrens, Lynn Ahrens, 1 more credit Â» \n\nStars: Dominic Marsh, Nikki M. James, Pamela Shaw\n &lt;a href=&quot;\nhttp://www.imdb.com/title/tt2404593/&quot; rel=&quot;nofollow&quot; target=&quot;_NEW&quot;&gt;\nhttp://www.imdb.com/title/tt2404593/&lt;/a&gt;","torrent":{"xt":"urn:btih:6c0cbde01565c9ac1a279c5bf0d14282f8a7e809","amp;dn":"Lucky.Stiff.2014.WEBRip.XViD-Sorrow","amp;tr":["udp%3A%2F%2Ftracker.openbittorrent.com%3A80","udp%3A%2F%2Fopen.demonii.com%3A1337","udp%3A%2F%2Ftracker.coppersurfer.tk%3A6969","udp%3A%2F%2Fexodus.desync.com%3A6969"],"infoHash":"6c0cbde01565c9ac1a279c5bf0d14282f8a7e809","infoHashBuffer":{"type":"Buffer","data":[108,12,189,224,21,101,201,172,26,39,156,91,240,209,66,130,248,167,232,9]},"announce":[],"urlList":[]}}